<?xml version="1.0" standalone="no"?>
<!DOCTYPE svg PUBLIC "-//W3C//DTD SVG 20010904//EN"
 "http://www.w3.org/TR/2001/REC-SVG-20010904/DTD/svg10.dtd">
<svg version="1.0" xmlns="http://www.w3.org/2000/svg"
 width="512.000000pt" height="512.000000pt" viewBox="0 0 512.000000 512.000000"
 preserveAspectRatio="xMidYMid meet">

<g transform="translate(0.000000,512.000000) scale(0.100000,-0.100000)"
fill="#000000" stroke="none">
<path d="M2480 4721 c-84 -26 -28 19 -1345 -1073 -1194 -989 -1142 -941 -1131
-1041 6 -58 28 -96 71 -126 53 -36 93 -41 342 -41 l233 0 2 -1027 3 -1028 752
-3 752 -2 3 402 c3 442 2 436 65 469 38 21 628 21 666 0 63 -33 62 -27 65
-468 l3 -403 749 0 750 0 0 1029 0 1030 263 3 c241 3 265 5 296 23 86 51 120
143 84 227 -18 39 -146 148 -1155 985 -625 518 -1160 960 -1189 982 -30 23
-74 48 -98 56 -47 16 -138 19 -181 6z m176 -154 c27 -18 561 -457 1187 -976
1101 -913 1138 -944 1135 -975 l-3 -31 -320 -5 -320 -5 -3 -1027 -2 -1028
-620 0 -619 0 -3 348 c-3 310 -5 351 -21 383 -24 47 -71 95 -121 122 -40 21
-51 22 -386 22 -338 0 -346 0 -387 -22 -23 -13 -58 -39 -77 -59 -63 -64 -66
-88 -66 -461 l0 -333 -620 0 -620 0 -2 1028 -3 1027 -309 3 c-215 1 -314 6
-323 14 -42 35 -48 29 1142 1016 633 524 1166 962 1185 972 56 31 119 26 176
-13z"/>
<path d="M1510 2170 l0 -300 300 0 300 0 0 300 0 300 -300 0 -300 0 0 -300z
m470 -5 l0 -165 -170 0 -170 0 0 165 0 165 170 0 170 0 0 -165z"/>
<path d="M3010 2170 l0 -300 300 0 300 0 0 300 0 300 -300 0 -300 0 0 -300z
m470 -5 l0 -165 -170 0 -170 0 0 165 0 165 170 0 170 0 0 -165z"/>
</g>
</svg>
