<?xml version="1.0" standalone="no"?>
<!DOCTYPE svg PUBLIC "-//W3C//DTD SVG 20010904//EN"
 "http://www.w3.org/TR/2001/REC-SVG-20010904/DTD/svg10.dtd">
<svg version="1.0" xmlns="http://www.w3.org/2000/svg"
 width="512.000000pt" height="512.000000pt" viewBox="0 0 512.000000 512.000000"
 preserveAspectRatio="xMidYMid meet">

<g transform="translate(0.000000,512.000000) scale(0.100000,-0.100000)"
fill="#000000" stroke="none">
<path d="M517 4179 c-113 -16 -213 -95 -265 -207 l-27 -57 0 -1355 0 -1355 33
-67 c40 -81 110 -148 190 -180 l57 -23 2055 0 2055 0 57 23 c80 32 150 99 190
180 l33 67 0 1355 0 1355 -33 67 c-40 81 -110 148 -190 180 l-57 23 -2020 1
c-1111 1 -2046 -2 -2078 -7z m4111 -147 c17 -8 32 -18 32 -23 0 -12 -1972
-2037 -2017 -2072 -50 -38 -116 -38 -166 1 -20 15 -482 485 -1027 1046 -1080
1110 -1016 1036 -919 1055 24 5 932 8 2054 7 1661 -1 2016 -3 2043 -14z
m-3564 -852 c361 -371 655 -677 654 -681 -4 -9 -1328 -1273 -1338 -1277 -4 -2
-10 7 -14 20 -8 31 -8 2612 0 2633 6 15 8 15 24 -2 10 -10 313 -322 674 -693z
m3696 -615 c0 -715 -3 -1310 -6 -1323 -4 -13 -10 -22 -14 -20 -15 6 -1335
1272 -1335 1280 0 19 1340 1386 1347 1375 4 -7 8 -597 8 -1312z m-2575 -534
c246 -250 269 -266 388 -259 41 2 88 12 109 22 31 15 269 249 535 525 l80 84
674 -644 c371 -354 675 -647 677 -651 14 -32 -34 -33 -2088 -33 -2045 0 -2093
1 -2089 32 0 5 305 298 676 652 l676 644 76 -79 c41 -43 170 -175 286 -293z"/>
</g>
</svg>
